<svg id="Warstwa_1" data-name="Warstwa 1" xmlns="http://www.w3.org/2000/svg" xmlns:xlink="http://www.w3.org/1999/xlink" viewBox="0 0 385.01 356.12"><defs><style>.cls-1{fill:none;stroke:#a24593;}.cls-1,.cls-2{stroke-linecap:round;stroke-linejoin:round;stroke-width:10px;}.cls-2{fill:url(#Gradient_bez_nazwy_13);stroke:url(#Gradient_bez_nazwy_14);}</style><linearGradient id="Gradient_bez_nazwy_13" x1="111.52" y1="379.54" x2="288.96" y2="379.54" gradientUnits="userSpaceOnUse"><stop offset="0" stop-color="#ee7349"/><stop offset="1" stop-color="#a24593"/></linearGradient><linearGradient id="Gradient_bez_nazwy_14" x1="106.52" y1="379.54" x2="293.96" y2="379.54" xlink:href="#Gradient_bez_nazwy_13"/></defs><title>brain_new</title><path class="cls-1" d="M486.53,343.2a46.61,46.61,0,0,0-8.64-26.91,60.34,60.34,0,0,0,8.44-30.89c0-33.25-26.69-60.2-59.61-60.2a59.39,59.39,0,0,0-13.88,1.64c-11.16-12.73-28.45-20.8-47.76-20.54-26,.34-47.89,15.63-56,36.72V520.09c7.91,20.51,30.83,34.14,56,31.66,29.26-2.88,50.45-26.43,47.35-52.61-.06-.5-.13-1-.21-1.48A34,34,0,0,0,424.13,494c15.69-8.25,21.24-27.71,15.6-48.13C459,441,473.4,421.07,473.4,397.26a56.69,56.69,0,0,0-3.09-18.57C480.33,369.58,486.53,357,486.53,343.2Z" transform="translate(-106.52 -201.29)"/><path class="cls-1" d="M422,244.73" transform="translate(-106.52 -201.29)"/><path class="cls-1" d="M359,272.11" transform="translate(-106.52 -201.29)"/><path class="cls-1" d="M398.91,270.67" transform="translate(-106.52 -201.29)"/><path class="cls-1" d="M413.8,241.37" transform="translate(-106.52 -201.29)"/><path class="cls-1" d="M411.88,224.56" transform="translate(-106.52 -201.29)"/><path class="cls-1" d="M412.84,226.84c2.46,2.47,11.51,12.1,10.56,24.61-1.46,19.47-26.44,37-45.15,28.83-11.42-5-18.71-18.78-18-34.06" transform="translate(-106.52 -201.29)"/><path class="cls-1" d="M441.18,350.89" transform="translate(-106.52 -201.29)"/><path class="cls-1" d="M422.44,339.36c-32.67-40,9.15-48.54,26.9-45.15,15,2.85,30.26,19.69,35.49,36.87" transform="translate(-106.52 -201.29)"/><path class="cls-1" d="M310,388.69c3.4-6.43,9.38-15.5,17.74-16.2,15.11-1.25,22,26.77,43.51,31.56,12.32,2.75,24.16-3.29,31.94-8.49" transform="translate(-106.52 -201.29)"/><path class="cls-1" d="M412,496.19c-3.21-19.46-14.61-33.3-29-34.35-15.45-1.13-26.83,13.43-29.3,16.82a44,44,0,0,0-8.16,23.53" transform="translate(-106.52 -201.29)"/><path class="cls-2" d="M111.52,343.58a46.56,46.56,0,0,1,8.64-26.91,60.38,60.38,0,0,1-8.44-30.9c0-33.24,26.68-60.2,59.6-60.2a58.8,58.8,0,0,1,13.88,1.65c11.16-12.74,28.45-20.8,47.77-20.55,26,.34,47.88,15.63,56,36.73V520.47c-7.9,20.51-30.82,34.13-56,31.66-29.25-2.88-50.45-26.44-47.34-52.62.05-.49.13-1,.2-1.48a33.94,33.94,0,0,1-11.93-3.62c-15.69-8.25-21.24-27.71-15.59-48.13-19.26-4.93-33.67-24.83-33.67-48.64a56.71,56.71,0,0,1,3.09-18.58C117.71,370,111.52,357.42,111.52,343.58Z" transform="translate(-106.52 -201.29)"/></svg>